<svg width="12" height="16" viewBox="0 0 12 16" fill="none" xmlns="http://www.w3.org/2000/svg">
<path d="M1 6.44444H1.76923V1H7.53846C9.46154 1 11 2.55556 11 4.5C11 6.44444 9.46154 8 7.53846 8H3.30769V9.55556H7.92308V11.1111H3.30769V15H1.76923V11.1111H1V9.55556H1.76923V8H1V6.44444ZM7.53846 2.55556H3.30769V6.44444H7.53846C8.04849 6.44444 8.53764 6.23958 8.89828 5.87493C9.25893 5.51028 9.46154 5.0157 9.46154 4.5C9.46154 3.9843 9.25893 3.48972 8.89828 3.12507C8.53764 2.76042 8.04849 2.55556 7.53846 2.55556Z" fill="black" stroke="black"/>
</svg>
