<svg width="7" height="10" viewBox="0 0 7 10" fill="none" xmlns="http://www.w3.org/2000/svg">
<path d="M2.736 6.348C2.736 6.028 2.788 5.748 2.892 5.508C3.004 5.26 3.136 5.052 3.288 4.884C3.448 4.716 3.656 4.516 3.912 4.284C4.232 4.004 4.468 3.764 4.62 3.564C4.772 3.356 4.848 3.108 4.848 2.82C4.848 2.428 4.696 2.116 4.392 1.884C4.088 1.644 3.668 1.524 3.132 1.524C2.196 1.524 1.48 1.84 0.984 2.472L0.108 1.848C0.444 1.416 0.872 1.084 1.392 0.852C1.92 0.62 2.528 0.504 3.216 0.504C4.088 0.504 4.78 0.696 5.292 1.08C5.804 1.456 6.06 1.976 6.06 2.64C6.06 2.968 6.004 3.26 5.892 3.516C5.788 3.764 5.66 3.972 5.508 4.14C5.356 4.308 5.152 4.508 4.896 4.74C4.568 5.036 4.324 5.296 4.164 5.52C4.012 5.744 3.936 6.02 3.936 6.348H2.736ZM3.348 9.072C3.124 9.072 2.936 9 2.784 8.856C2.64 8.704 2.568 8.52 2.568 8.304C2.568 8.088 2.64 7.908 2.784 7.764C2.936 7.612 3.124 7.536 3.348 7.536C3.572 7.536 3.756 7.612 3.9 7.764C4.044 7.908 4.116 8.088 4.116 8.304C4.116 8.52 4.04 8.704 3.888 8.856C3.744 9 3.564 9.072 3.348 9.072Z" fill="black"/>
</svg>
