<svg width="31" height="32" viewBox="0 -4 31 32" fill="none" xmlns="http://www.w3.org/2000/svg">
<g filter="url(#filter0_d_43_4027)">
<path d="M26.1494 17.7016L23.3231 14.718C22.5439 13.8955 21.276 13.8955 20.4969 14.718L19.2122 16.0742C18.6219 16.6973 17.6614 16.6971 17.0713 16.0744L11.503 10.1912C10.9113 9.56663 10.9113 8.55568 11.503 7.93097C11.71 7.71254 12.3041 7.0853 12.7877 6.57483C13.5635 5.75593 13.5743 4.42163 12.7869 3.59053L9.96142 0.617157C9.18222 -0.205359 7.91435 -0.205359 7.13724 0.615001C6.55573 1.22353 6.36817 1.41984 6.10743 1.6927C3.29755 4.65891 3.29755 9.4853 6.10729 12.4514L14.93 21.77C17.7464 24.7432 22.3049 24.7435 25.1216 21.77L26.1494 20.6851C26.9286 19.8625 26.9286 18.5241 26.1494 17.7016ZM8.07727 1.61166C8.33699 1.33749 8.75954 1.33744 9.0201 1.61241L11.8456 4.58578C12.1059 4.86061 12.1059 5.30541 11.8456 5.58029L11.3745 6.07754L7.60863 2.10206L8.07727 1.61166ZM15.8722 20.7756L7.0495 11.457C4.87557 9.16205 4.75608 5.55854 6.68201 3.11292L10.437 7.07686C9.45033 8.2576 9.49145 10.0568 10.5607 11.1856L16.1288 17.0685C16.1288 17.0685 16.1289 17.0686 16.129 17.0687C17.1971 18.1963 18.9014 18.2425 20.0212 17.1995L23.7763 21.1636C21.467 23.1932 18.0611 23.0863 15.8722 20.7756ZM25.2074 19.6906L24.7363 20.1879L20.9679 16.2098L21.4389 15.7125C21.6987 15.4383 22.1213 15.4383 22.3811 15.7125L25.2073 18.6961C25.4671 18.9703 25.4671 19.4164 25.2074 19.6906Z" fill="white"/>
</g>
<defs>
<filter id="filter0_d_43_4027" x="0" y="0" width="30.7339" height="32" filterUnits="userSpaceOnUse" color-interpolation-filters="sRGB">
<feFlood flood-opacity="0" result="BackgroundImageFix"/>
<feColorMatrix in="SourceAlpha" type="matrix" values="0 0 0 0 0 0 0 0 0 0 0 0 0 0 0 0 0 0 127 0" result="hardAlpha"/>
<feOffset dy="2"/>
<feGaussianBlur stdDeviation="2"/>
<feComposite in2="hardAlpha" operator="out"/>
<feColorMatrix type="matrix" values="0 0 0 0 0 0 0 0 0 0 0 0 0 0 0 0 0 0 0.25 0"/>
<feBlend mode="normal" in2="BackgroundImageFix" result="effect1_dropShadow_43_4027"/>
<feBlend mode="normal" in="SourceGraphic" in2="effect1_dropShadow_43_4027" result="shape"/>
</filter>
</defs>
</svg>
