<svg width="377" height="41" viewBox="0 0 377 41" fill="none" xmlns="http://www.w3.org/2000/svg">
<rect width="377" height="41" rx="3" fill="#070707" fill-opacity="0.03"/>
<rect x="0.5" y="0.5" width="376" height="40" rx="2.5" stroke="#040404" stroke-opacity="0.5"/>
<path d="M51.968 16.2V26H50.596V17.418H44.912V26H43.526V16.2H51.968ZM57.978 26.084C57.2407 26.084 56.578 25.9207 55.99 25.594C55.402 25.2673 54.94 24.8193 54.604 24.25C54.2774 23.6713 54.114 23.018 54.114 22.29C54.114 21.562 54.2774 20.9133 54.604 20.344C54.94 19.7653 55.402 19.3173 55.99 19C56.578 18.6733 57.2407 18.51 57.978 18.51C58.7154 18.51 59.3734 18.6733 59.952 19C60.54 19.3173 60.9974 19.7653 61.324 20.344C61.66 20.9133 61.828 21.562 61.828 22.29C61.828 23.018 61.66 23.6713 61.324 24.25C60.9974 24.8193 60.54 25.2673 59.952 25.594C59.3734 25.9207 58.7154 26.084 57.978 26.084ZM57.978 24.908C58.454 24.908 58.8787 24.8007 59.252 24.586C59.6347 24.362 59.9334 24.054 60.148 23.662C60.3627 23.2607 60.47 22.8033 60.47 22.29C60.47 21.7767 60.3627 21.324 60.148 20.932C59.9334 20.5307 59.6347 20.2227 59.252 20.008C58.8787 19.7933 58.454 19.686 57.978 19.686C57.502 19.686 57.0727 19.7933 56.69 20.008C56.3167 20.2227 56.018 20.5307 55.794 20.932C55.5794 21.324 55.472 21.7767 55.472 22.29C55.472 22.8033 55.5794 23.2607 55.794 23.662C56.018 24.054 56.3167 24.362 56.69 24.586C57.0727 24.8007 57.502 24.908 57.978 24.908ZM63.7688 18.58H65.1128V23.984L69.6628 18.58H70.8808V26H69.5368V20.596L65.0008 26H63.7688V18.58ZM76.7235 26.084C75.9675 26.084 75.2908 25.9207 74.6935 25.594C74.1055 25.2673 73.6435 24.8193 73.3075 24.25C72.9715 23.6713 72.8035 23.018 72.8035 22.29C72.8035 21.562 72.9715 20.9133 73.3075 20.344C73.6435 19.7653 74.1055 19.3173 74.6935 19C75.2908 18.6733 75.9675 18.51 76.7235 18.51C77.3955 18.51 77.9928 18.6453 78.5155 18.916C79.0475 19.1867 79.4582 19.5787 79.7475 20.092L78.7255 20.75C78.4922 20.3953 78.2028 20.1293 77.8575 19.952C77.5122 19.7747 77.1295 19.686 76.7095 19.686C76.2242 19.686 75.7855 19.7933 75.3935 20.008C75.0108 20.2227 74.7075 20.5307 74.4835 20.932C74.2688 21.324 74.1615 21.7767 74.1615 22.29C74.1615 22.8127 74.2688 23.2747 74.4835 23.676C74.7075 24.068 75.0108 24.3713 75.3935 24.586C75.7855 24.8007 76.2242 24.908 76.7095 24.908C77.1295 24.908 77.5122 24.8193 77.8575 24.642C78.2028 24.4647 78.4922 24.1987 78.7255 23.844L79.7475 24.488C79.4582 25.0013 79.0475 25.398 78.5155 25.678C77.9928 25.9487 77.3955 26.084 76.7235 26.084ZM84.3715 22.864H82.8315V26H81.4875V18.58H82.8315V21.716H84.3995L86.8075 18.58H88.2495L85.4355 22.15L88.4455 26H86.8635L84.3715 22.864Z" fill="black" fill-opacity="0.5"/>
<circle cx="24.5" cy="19.5" r="4" stroke="black" stroke-opacity="0.5"/>
<line y1="-0.5" x2="6.55661" y2="-0.5" transform="matrix(0.709901 0.704302 -0.709901 0.704302 27 22)" stroke="black" stroke-opacity="0.5"/>
</svg>
