<svg width="185" height="42" viewBox="0 0 185 42" fill="none" xmlns="http://www.w3.org/2000/svg">
<path fill-rule="evenodd" clip-rule="evenodd" d="M93.3931 37.3444C93.3931 37.3444 94.4896 36.8129 96.4129 36.0975C97.4039 36.5716 99.5758 37.5589 101.679 38.1666C104.525 38.9887 106.423 38.8621 109.079 38.8621C111.736 38.8621 115.531 38.4194 115.531 38.4194C115.531 38.4194 114.961 36.3324 114.898 34.8144C114.835 33.2961 114.835 33.0433 114.835 33.0433C114.835 33.0433 114.266 35.1938 114.392 36.3324C114.519 37.4707 114.519 37.8504 114.519 37.8504C114.519 37.8504 109.522 38.3564 105.98 37.9767C102.438 37.5973 100.287 37.2175 98.7695 36.7118C97.9331 36.4328 97.1353 36.1928 96.5873 36.033C99.2706 35.0451 103.47 33.7361 108.51 32.9803C117.365 31.6519 115.594 32.0946 115.594 32.0946C115.594 32.0946 115.784 31.7151 116.922 31.5889C118.06 31.4623 129.698 30.893 133.304 31.1459C136.909 31.3987 146.839 31.905 148.294 32.8537C149.749 33.8024 150.318 34.7511 149.875 37.0912C149.433 39.4317 148.547 41.7088 147.725 41.2025C146.903 40.6965 144.12 38.5463 141.463 38.1666C138.807 37.7871 135.897 37.8504 134.695 38.1666C133.493 38.483 131.47 39.7478 130.521 39.4317C129.572 39.1156 127.675 37.3444 126.157 37.977C124.639 38.6096 124.575 38.7991 123.88 39.6845C123.184 40.5703 122.235 41.5823 121.476 40.6336C120.717 39.6845 119.326 39.2418 118.124 39.1785C116.922 39.1156 115.847 39.495 115.531 39.8111C115.214 40.1276 114.772 40.7598 114.772 40.7598C114.772 40.7598 112.811 40.2541 110.534 40.507C108.257 40.7598 104.335 40.9497 101.679 40.4437C99.0223 39.9377 93.3931 37.3444 93.3931 37.3444ZM117.302 38.1033C117.302 38.1033 119.832 37.6605 120.781 38.3561C121.729 39.052 121.919 39.6213 123.627 38.2298C125.335 36.8381 126.41 35.8261 128.307 36.8381C130.205 37.8504 131.09 38.4827 132.925 37.534C134.759 36.5853 138.744 35.5733 142.096 36.9647C145.448 38.3561 148.041 40.57 148.547 39.1785C149.053 37.7868 149.306 36.2688 146.713 35.6998C144.12 35.1306 140.262 34.498 136.72 35.0673C133.177 35.6365 132.545 37.2808 131.09 36.8381C129.635 36.3954 128.054 35.0673 126.283 35.7628C124.512 36.4587 122.994 38.6093 121.539 37.9134C120.085 37.2178 119.073 36.5853 118.187 37.028C117.302 37.4707 117.302 38.1033 117.302 38.1033Z" fill="#1F1C21"/>
<path d="M1.48196 0.333774V9.73962H1.91523C1.9487 9.20045 2.03208 8.6555 2.17113 8.11086C2.3044 7.56044 2.47661 7.03255 2.69355 6.52655C2.90471 6.02603 3.14934 5.57054 3.42714 5.15886C3.69976 4.75327 3.99977 4.42496 4.31712 4.16907C4.5505 3.97495 4.85051 3.79118 5.22293 3.61348C5.59536 3.43549 6.0402 3.29096 6.55715 3.1799C7.07988 3.06306 7.67474 3.00739 8.35265 3.00192H15.4238L0.547852 23.4816L0.614485 23.6818H22.1284V12.8748H21.6948C21.6613 13.4867 21.5999 14.1089 21.511 14.7372C21.4167 15.3655 21.2889 15.9771 21.1222 16.5717C20.9496 17.1665 20.7327 17.7169 20.4662 18.2284C20.1993 18.7344 19.8768 19.1735 19.4931 19.5459C19.0096 19.9962 18.4982 20.3242 17.9645 20.5357C17.4253 20.7468 16.8916 20.8801 16.3522 20.9358C15.8188 20.9969 15.3073 21.0189 14.8235 21.0134H7.48548L22.2951 0.533688L22.1284 0.333774H1.48196ZM28.8326 19.9463C28.8381 20.2183 28.8271 20.4964 28.794 20.7855C28.766 21.0745 28.6881 21.3636 28.5716 21.6417C28.4547 21.9198 28.26 22.1809 27.9989 22.4145C27.7485 22.6199 27.471 22.7815 27.1537 22.8871C26.8427 22.9984 26.5202 23.076 26.1867 23.1204C25.8529 23.1649 25.5362 23.198 25.2304 23.215L24.6635 23.2482V23.6818H48.0782V13.5418H47.6446L47.5448 14.5763C47.4946 15.1264 47.4167 15.6713 47.3169 16.2269C47.211 16.7773 47.0443 17.311 46.8055 17.828C46.5718 18.3507 46.2273 18.8287 45.777 19.2791C45.638 19.4236 45.4323 19.5961 45.1655 19.7902C44.8983 19.9849 44.5597 20.1742 44.1425 20.3574C43.7257 20.5466 43.2251 20.7021 42.6415 20.8247C42.0577 20.9467 41.3797 21.0079 40.6069 21.0134H32.9685V4.06926C32.9631 3.87453 32.974 3.63021 33.0078 3.34116C33.0355 3.0521 33.1131 2.7518 33.2299 2.44053C33.3525 2.12896 33.5412 1.85148 33.8026 1.60106C34.0417 1.3899 34.3195 1.2341 34.6363 1.12882C34.9591 1.01746 35.2868 0.939585 35.626 0.894858C35.9595 0.850739 36.2766 0.817252 36.5711 0.800517L37.1382 0.767356V0.333774H24.6635V0.767356L25.2304 0.800517C25.5252 0.817252 25.842 0.850739 26.1813 0.894858C26.5144 0.939585 26.8427 1.01746 27.165 1.12882C27.482 1.2341 27.7601 1.3899 27.9989 1.60106C28.26 1.85148 28.4547 2.12896 28.5716 2.44053C28.6881 2.7518 28.766 3.0521 28.794 3.34116C28.8271 3.63021 28.8381 3.87453 28.8326 4.06926V19.9463ZM60.3862 0L53.1148 17.5447C52.8704 18.1171 52.648 18.6063 52.4478 19.0067C52.2476 19.4068 52.0754 19.7406 51.9254 20.0072C51.7751 20.2685 51.6473 20.48 51.5475 20.6464C51.4416 20.8247 51.2916 21.0414 51.1081 21.286C50.9246 21.5303 50.6913 21.7807 50.4077 22.0363C50.1296 22.2867 49.7964 22.5146 49.4015 22.7148C49.0123 22.9147 48.562 23.0593 48.045 23.1484L47.4112 23.2482V23.6818H59.3857V23.2482L58.5517 23.1816C58.224 23.1594 57.8735 23.1037 57.5011 23.0148C57.1287 22.926 56.7785 22.787 56.4447 22.6035C56.1115 22.42 55.8334 22.1809 55.6168 21.8805C55.4385 21.6307 55.3165 21.3362 55.2443 20.9915C55.1774 20.6522 55.1549 20.3017 55.1887 19.9408C55.216 19.5851 55.2939 19.2514 55.4166 18.9456L56.6842 15.8436H65.2228L66.7238 19.5127C66.8126 19.7181 66.885 19.9408 66.9517 20.1851C67.0183 20.4352 67.0515 20.6747 67.0573 20.9136C67.0515 21.4083 66.9572 21.8029 66.7682 22.092C66.5847 22.3865 66.3456 22.6035 66.0568 22.748C65.9062 22.8369 65.723 22.909 65.5119 22.9646C65.3004 23.0203 65.0451 23.0705 64.7336 23.1092C64.4223 23.1484 64.0386 23.1816 63.5886 23.215L63.0881 23.2482V23.6818H76.1634V23.2482L75.6294 23.215C75.2348 23.1925 74.8453 23.1259 74.4619 23.0148C74.0785 22.9089 73.728 22.7699 73.4058 22.6035C73.0778 22.4367 72.8107 22.2475 72.594 22.0479C72.3996 21.8532 72.2103 21.5973 72.0326 21.286C71.8492 20.9693 71.649 20.5521 71.4211 20.0297C71.1987 19.5127 70.9205 18.8512 70.5928 18.0449L63.2216 0H60.3862ZM64.3891 13.5086H57.5178L60.9202 5.30339H60.9868L64.3891 13.5086ZM86.2365 3.00192H88.7047C88.8992 2.99644 89.1441 3.00739 89.4386 3.02991C89.7332 3.05212 90.0499 3.09654 90.3946 3.17443C90.7394 3.24654 91.0838 3.36308 91.4285 3.51917C91.7787 3.68043 92.1013 3.89705 92.4071 4.16907C92.6852 4.42496 92.9353 4.76421 93.1632 5.19232C93.3853 5.62012 93.5858 6.09295 93.7522 6.6099C93.9248 7.13233 94.0635 7.66085 94.1694 8.19424C94.2747 8.72792 94.3416 9.23362 94.3751 9.70646H94.8086V0.333774H73.5284V9.70646H73.962C73.9952 9.23362 74.0673 8.72792 74.1732 8.19424C74.2733 7.66085 74.412 7.13233 74.5843 6.6099C74.7513 6.09295 74.9512 5.62012 75.1794 5.19232C75.4018 4.76421 75.6519 4.42496 75.9297 4.16907C76.2355 3.89705 76.558 3.68043 76.908 3.51917C77.253 3.36308 77.5977 3.24654 77.9425 3.17443C78.2869 3.09654 78.6039 3.05212 78.8985 3.02991C79.193 3.00739 79.4376 2.99644 79.6324 3.00192H82.1006V19.9463C82.1061 20.1407 82.0951 20.3853 82.0613 20.6747C82.0337 20.9638 81.956 21.2638 81.8392 21.5751C81.7227 21.8805 81.528 22.1641 81.2666 22.4145C81.0274 22.6199 80.7496 22.7815 80.4329 22.8871C80.1101 22.9984 79.7824 23.0705 79.4486 23.1204C79.1096 23.1649 78.7926 23.1925 78.498 23.215L77.9309 23.2482V23.6818H90.4056V23.2482L89.8387 23.215C89.5439 23.1925 89.2272 23.1649 88.8937 23.1204C88.5547 23.0705 88.2264 22.9984 87.9042 22.8871C87.5871 22.7815 87.3096 22.6199 87.0702 22.4145C86.8091 22.1641 86.6199 21.8805 86.4976 21.5751C86.381 21.2638 86.3031 20.9638 86.2751 20.6747C86.242 20.3853 86.231 20.1407 86.2365 19.9463V3.00192ZM128.731 0.333774H118.724L112.487 16.1773H112.387L106.149 0.333774H95.7428V0.767356L96.3099 0.800517C96.6045 0.817252 96.9212 0.850739 97.2604 0.894858C97.5936 0.939585 97.9219 1.01746 98.2441 1.12882C98.5612 1.2341 98.8393 1.3899 99.0781 1.60106C99.3392 1.85148 99.5339 2.12896 99.6508 2.44053C99.7673 2.7518 99.8452 3.0521 99.8732 3.34116C99.9064 3.63021 99.9173 3.87453 99.9118 4.06926V19.2791C99.9173 19.5349 99.9009 19.8459 99.8677 20.2128C99.8343 20.5798 99.7564 20.9522 99.6344 21.3249C99.5175 21.6974 99.3283 22.0141 99.0781 22.2813C98.8615 22.4924 98.5834 22.6646 98.2557 22.7982C97.9274 22.9315 97.5881 23.0316 97.2437 23.0982C96.8935 23.1648 96.5822 23.2038 96.3099 23.215L95.7428 23.2482V23.6818H106.983V23.2482L106.416 23.215C106.144 23.2038 105.833 23.1648 105.482 23.0982C105.138 23.0316 104.799 22.9315 104.47 22.7982C104.143 22.6646 103.865 22.4924 103.648 22.2813C103.448 22.0753 103.292 21.8364 103.181 21.5583C103.064 21.2805 102.981 20.9969 102.931 20.7021C102.881 20.413 102.847 20.1407 102.831 19.8906C102.819 19.6347 102.814 19.4348 102.814 19.2791V3.56906H102.914L110.852 23.6818H112.387L120.325 3.56906H120.425V19.9463C120.431 20.1407 120.42 20.3853 120.386 20.6747C120.359 20.9638 120.286 21.2638 120.164 21.5751C120.047 21.8805 119.853 22.1641 119.591 22.4145C119.352 22.6199 119.074 22.7815 118.758 22.8871C118.435 22.9984 118.107 23.0705 117.774 23.1204C117.434 23.1649 117.118 23.1925 116.823 23.215L116.256 23.2482V23.6818H128.731V23.2482L128.163 23.215C127.869 23.1925 127.552 23.1649 127.218 23.1204C126.879 23.0705 126.551 22.9984 126.235 22.8871C125.912 22.7815 125.634 22.6199 125.395 22.4145C125.134 22.1641 124.945 21.8805 124.822 21.5751C124.706 21.2638 124.628 20.9638 124.6 20.6747C124.572 20.3853 124.555 20.1407 124.562 19.9463V4.06926C124.555 3.87453 124.572 3.63021 124.6 3.34116C124.628 3.0521 124.706 2.7518 124.822 2.44053C124.945 2.12896 125.134 1.85148 125.395 1.60106C125.634 1.3899 125.912 1.2341 126.235 1.12882C126.551 1.01746 126.879 0.939585 127.218 0.894858C127.552 0.850739 127.869 0.817252 128.163 0.800517L128.731 0.767356V0.333774ZM140.972 0L133.7 17.5447C133.456 18.1171 133.233 18.6063 133.033 19.0067C132.833 19.4068 132.661 19.7406 132.511 20.0072C132.361 20.2685 132.233 20.48 132.133 20.6464C132.027 20.8247 131.877 21.0414 131.694 21.286C131.51 21.5303 131.277 21.7807 130.993 22.0363C130.715 22.2867 130.382 22.5146 129.987 22.7148C129.598 22.9147 129.148 23.0593 128.631 23.1484L127.997 23.2482V23.6818H139.971V23.2482L139.137 23.1816C138.81 23.1594 138.459 23.1037 138.087 23.0148C137.714 22.926 137.364 22.787 137.03 22.6035C136.697 22.42 136.419 22.1809 136.202 21.8805C136.024 21.6307 135.902 21.3362 135.83 20.9915C135.763 20.6522 135.74 20.3017 135.774 19.9408C135.802 19.5851 135.879 19.2514 136.002 18.9456L137.27 15.8436H145.808L147.309 19.5127C147.398 19.7181 147.47 19.9408 147.537 20.1851C147.604 20.4352 147.637 20.6747 147.643 20.9136C147.637 21.4083 147.543 21.8029 147.354 22.092C147.17 22.3865 146.931 22.6035 146.642 22.748C146.492 22.8369 146.309 22.909 146.097 22.9646C145.886 23.0203 145.631 23.0705 145.319 23.1092C145.008 23.1484 144.624 23.1816 144.174 23.215L143.674 23.2482V23.6818H156.749V23.2482L156.215 23.215C155.82 23.1925 155.431 23.1259 155.047 23.0148C154.664 22.9089 154.314 22.7699 153.991 22.6035C153.663 22.4367 153.396 22.2475 153.179 22.0479C152.985 21.8532 152.796 21.5973 152.618 21.286C152.435 20.9693 152.234 20.5521 152.007 20.0297C151.784 19.5127 151.506 18.8512 151.178 18.0449L143.807 0H140.972ZM144.975 13.5086H138.103L141.506 5.30339H141.572L144.975 13.5086ZM155.548 0.333774V0.767356L156.182 0.900919C156.588 0.995243 157.005 1.17295 157.432 1.42884C157.86 1.68443 158.272 1.97894 158.666 2.3182C159.061 2.65746 159.412 2.99644 159.717 3.33539L167.422 11.9078L160.918 19.4793C160.807 19.6183 160.646 19.7847 160.446 19.9849C160.245 20.1851 160.023 20.3966 159.79 20.6133C159.551 20.8302 159.328 21.0304 159.111 21.2136C158.9 21.3974 158.722 21.5419 158.583 21.6472C158.061 22.0309 157.494 22.3643 156.882 22.6369C156.276 22.909 155.676 23.1149 155.081 23.2482V23.6818H168.19V23.2482L167.389 23.1816C166.761 23.1259 166.277 23.0535 165.932 22.9704C165.593 22.8813 165.365 22.8201 165.254 22.7815C165.015 22.6923 164.793 22.5813 164.582 22.4313C164.37 22.2867 164.192 22.103 164.059 21.8696C163.926 21.6417 163.859 21.3581 163.854 21.0134C163.859 20.7523 163.931 20.48 164.065 20.1909C164.198 19.9019 164.348 19.6347 164.52 19.3904C164.693 19.1458 164.837 18.951 164.954 18.812L169.19 13.8755L173.76 18.9121C173.998 19.168 174.221 19.4348 174.432 19.7071C174.643 19.9849 174.821 20.2631 174.955 20.5521C175.088 20.8357 175.155 21.1247 175.16 21.4138C175.155 21.7418 175.066 22.0141 174.888 22.231C174.716 22.4422 174.482 22.6144 174.193 22.748C173.888 22.898 173.532 23.0094 173.137 23.0818C172.742 23.1539 172.348 23.198 171.958 23.215L170.991 23.2482V23.6818H185V23.2482C184.634 23.2038 184.233 23.1092 183.805 22.9646C183.371 22.8201 182.916 22.5922 182.432 22.2813C181.826 21.8586 181.237 21.3526 180.675 20.7523C180.114 20.1572 179.519 19.5012 178.896 18.7788L171.792 10.8402L176.295 5.63716C176.617 5.26474 176.956 4.86982 177.312 4.44719C177.673 4.02456 178.057 3.61348 178.468 3.21306C178.874 2.81295 179.319 2.45178 179.797 2.13442C180.091 1.94578 180.414 1.76201 180.775 1.5901C181.137 1.41788 181.515 1.27335 181.909 1.14526C182.299 1.01746 182.682 0.922846 183.066 0.867165L183.733 0.767356V0.333774H170.324V0.767356L171.158 0.834004C171.77 0.883904 172.27 0.972723 172.659 1.09504C173.048 1.21766 173.348 1.36768 173.559 1.53442C173.804 1.71789 173.982 1.9181 174.082 2.14052C174.182 2.36841 174.232 2.61823 174.227 2.90181C174.221 3.23559 174.177 3.5301 174.082 3.79664C173.993 4.05831 173.882 4.28623 173.749 4.48644C173.615 4.68665 173.487 4.85884 173.359 5.00337L170.024 8.90594L165.288 3.63568C165.11 3.43547 164.982 3.25781 164.915 3.10202C164.848 2.94654 164.815 2.80201 164.82 2.66844C164.815 2.41255 164.876 2.16274 165.015 1.91811C165.149 1.67317 165.393 1.45654 165.755 1.26759C165.927 1.18939 166.127 1.11726 166.36 1.05641C166.594 0.995253 166.833 0.945058 167.072 0.906416C167.311 0.872947 167.528 0.845262 167.723 0.834004L168.49 0.767356V0.333774H155.548Z" fill="#1F1C21"/>
<path d="M0.479223 34.675C0.622229 34.5852 0.780443 34.5034 0.953572 34.427C1.1267 34.3515 1.30957 34.2904 1.50186 34.2444C1.69568 34.1973 1.89194 34.1741 2.09002 34.172C2.36629 34.172 2.60789 34.2198 2.81358 34.3132C3.02109 34.4081 3.18082 34.5453 3.29675 34.7264C3.41115 34.9092 3.47018 35.1317 3.47231 35.3946C3.47018 35.5926 3.42454 35.777 3.33113 35.9486C3.23954 36.1196 3.11024 36.2681 2.94472 36.3977C2.78102 36.527 2.58871 36.6281 2.36781 36.7005C2.14935 36.7726 1.91111 36.8091 1.65583 36.8109H1.21039V37.5649H1.66709C1.86577 37.5649 2.06354 37.5783 2.26132 37.6084C2.46092 37.637 2.64988 37.6863 2.82879 37.7548C3.00587 37.8238 3.1656 37.9151 3.30465 38.0289C3.4437 38.1433 3.55416 38.2842 3.63388 38.4515C3.71573 38.6192 3.75589 38.8194 3.75771 39.0497C3.75771 39.333 3.68925 39.5846 3.55416 39.8034C3.41693 40.0243 3.21885 40.1956 2.9584 40.3213C2.69521 40.4451 2.37756 40.5096 1.99844 40.5121C1.78393 40.5096 1.57033 40.4868 1.35887 40.443C1.14588 40.3992 0.945665 40.3419 0.759452 40.272C0.570502 40.2014 0.405289 40.125 0.262283 40.0432L0 40.8203C0.300313 40.9952 0.622237 41.1245 0.966973 41.2049C1.3111 41.2843 1.65978 41.3247 2.0103 41.3226C2.29387 41.3226 2.56985 41.2962 2.84004 41.2423C3.11236 41.189 3.3652 41.1072 3.60192 40.9952C3.83956 40.883 4.04707 40.7384 4.22811 40.5629C4.40854 40.3858 4.54972 40.1768 4.65226 39.9312C4.7551 39.6857 4.80653 39.4036 4.80836 39.0841C4.80106 38.7123 4.71677 38.391 4.55307 38.1172C4.38938 37.843 4.16848 37.6221 3.88734 37.4584C3.60528 37.2947 3.2858 37.1937 2.92402 37.1532V37.131C3.22464 37.0601 3.493 36.9363 3.73063 36.7613C3.96918 36.5861 4.15966 36.3691 4.2981 36.1099C4.43715 35.8516 4.50774 35.564 4.5117 35.2461C4.50774 34.8481 4.4125 34.5088 4.22233 34.2292C4.03186 33.9496 3.76898 33.7342 3.43033 33.5857C3.09107 33.4375 2.69916 33.363 2.24976 33.3615C1.82926 33.363 1.45014 33.4186 1.11331 33.5227C0.778618 33.6298 0.479219 33.7682 0.21694 33.9438L0.479223 34.675ZM6.67018 33.498V36.7425C6.67231 37.0525 6.66621 37.3726 6.651 37.7C6.63761 38.0274 6.60901 38.3435 6.5652 38.6496C6.51986 38.9563 6.45292 39.2326 6.36164 39.48C6.27036 39.727 6.14865 39.9254 5.99621 40.0775C5.90097 40.171 5.78323 40.2562 5.6384 40.3347C5.49326 40.411 5.34296 40.4622 5.18504 40.4889L5.3107 41.2882C5.46131 41.2867 5.60766 41.2694 5.75462 41.2335C5.89915 41.1988 6.03608 41.1531 6.16387 41.0978C6.29105 41.0427 6.4015 40.9855 6.49856 40.9228C6.71216 40.7743 6.88925 40.586 7.03164 40.3593C7.17282 40.1308 7.28509 39.874 7.36846 39.5886C7.45274 39.301 7.51543 38.9959 7.55529 38.6724C7.59728 38.3469 7.62374 38.0161 7.63531 37.6753C7.64869 37.3343 7.65448 36.9974 7.65235 36.6621V34.3323H10.1884V41.197H11.1934V33.498H6.67018ZM16.8933 38.7756L17.7157 41.197H18.7779L16.1509 33.498H14.963L12.3356 41.197H13.3638L14.1631 38.7756H16.8933ZM14.3688 37.9988L15.1227 35.7716C15.2025 35.5354 15.2731 35.3011 15.3342 35.065C15.3969 34.8307 15.4559 34.6004 15.5113 34.3777H15.5338C15.5892 34.5986 15.6503 34.8274 15.713 35.0596C15.776 35.2914 15.8499 35.5315 15.9333 35.7825L16.6992 37.9988H14.3688ZM21.3703 41.197H22.3753V34.3436H24.7288V33.498H19.0292V34.3436H21.3703V41.197ZM28.6916 33.3615C28.1759 33.363 27.7 33.4585 27.2679 33.649C26.8337 33.8391 26.4589 34.1115 26.1394 34.4653C25.8193 34.8213 25.5719 35.2461 25.3964 35.7411C25.2193 36.238 25.1301 36.7918 25.128 37.4052C25.1301 37.989 25.2138 38.52 25.3815 38.9998C25.5491 39.4781 25.7849 39.8907 26.0916 40.2379C26.3983 40.5842 26.7637 40.8504 27.1861 41.0387C27.6087 41.2255 28.0751 41.3208 28.5891 41.3226C28.9834 41.3226 29.3601 41.2654 29.7161 41.1531C30.0721 41.0427 30.3997 40.875 30.6964 40.6544C30.9937 40.4335 31.2526 40.1615 31.4711 39.8341C31.6904 39.5086 31.8621 39.1316 31.9813 38.7029C32.1012 38.2745 32.1624 37.7952 32.1642 37.2676C32.1624 36.6908 32.0805 36.1656 31.9186 35.6897C31.7571 35.212 31.5243 34.8003 31.2201 34.4541C30.9173 34.106 30.5519 33.8373 30.1256 33.649C29.7008 33.46 29.2216 33.363 28.6916 33.3615ZM28.6575 34.172C28.9889 34.1741 29.2858 34.2332 29.549 34.3515C29.8134 34.4674 30.0416 34.629 30.2379 34.8329C30.4341 35.0383 30.5978 35.2747 30.7271 35.5409C30.8567 35.8075 30.9538 36.0931 31.0183 36.3938C31.081 36.6965 31.1136 37.0032 31.1136 37.3136C31.1136 37.7532 31.0585 38.1664 30.9499 38.551C30.8409 38.9356 30.6812 39.274 30.4722 39.5673C30.2607 39.8606 30.0036 40.0909 29.6969 40.2586C29.3908 40.4238 29.0403 40.5081 28.6462 40.5121C28.3301 40.5096 28.0432 40.4549 27.784 40.3459C27.525 40.2355 27.2965 40.083 27.0969 39.8874C26.8967 39.6911 26.729 39.4608 26.594 39.2C26.457 38.9372 26.3539 38.6517 26.2839 38.3435C26.2155 38.0353 26.1789 37.7149 26.1789 37.382C26.1789 37.0452 26.2115 36.7178 26.2784 36.4032C26.3426 36.0892 26.4421 35.7962 26.5748 35.526C26.7065 35.2573 26.8721 35.0212 27.0698 34.818C27.2679 34.6159 27.5004 34.458 27.7651 34.3451C28.0295 34.2313 28.3262 34.1741 28.6575 34.172ZM32.6096 33.498L35.1682 38.7068C35.2139 38.7966 35.2425 38.8745 35.2501 38.9451C35.2574 39.0151 35.2425 39.0914 35.2026 39.1754C35.14 39.3144 35.0636 39.4608 34.9723 39.6111C34.8807 39.7635 34.7742 39.9041 34.6504 40.0377C34.5265 40.171 34.3857 40.2775 34.2278 40.3611C34.0695 40.443 33.8906 40.4868 33.6947 40.4889C33.6095 40.4889 33.5371 40.4868 33.4759 40.481C33.4148 40.4755 33.3633 40.4658 33.3177 40.4549L33.2264 41.2654C33.2894 41.2882 33.3655 41.3056 33.4546 41.3168C33.5459 41.3281 33.6563 41.3339 33.7859 41.3339C34.1267 41.3339 34.4413 41.2541 34.7267 41.0959C35.0118 40.9362 35.2787 40.7004 35.5221 40.3858C35.6593 40.2069 35.7929 40.0051 35.9201 39.7769C36.0497 39.5481 36.1735 39.3065 36.2934 39.0497C36.4136 38.7926 36.5295 38.5297 36.64 38.2632C36.7519 37.9948 36.8587 37.7326 36.9619 37.4733L38.5836 33.498H37.5324L36.322 36.7653C36.2308 37.0373 36.1468 37.2883 36.0704 37.5171C35.9946 37.7435 35.9219 37.955 35.8535 38.1473H35.8194C35.7336 37.9248 35.6459 37.7015 35.5547 37.4773C35.4634 37.2542 35.3679 37.0279 35.2711 36.7997L33.7406 33.498H32.6096ZM44.5799 40.1576C44.4448 40.2221 44.2905 40.2793 44.1156 40.3271C43.9403 40.3745 43.7541 40.411 43.5557 40.4372C43.3561 40.4643 43.1541 40.477 42.9469 40.477C42.324 40.4737 41.7931 40.3477 41.3552 40.0964C40.9174 39.8454 40.5821 39.4894 40.3499 39.0269C40.1181 38.5659 40.0012 38.0177 39.9997 37.382C40.0012 36.8751 40.0737 36.4263 40.2148 36.032C40.3572 35.6401 40.5614 35.3066 40.8237 35.0364C41.0884 34.7641 41.4045 34.5587 41.7724 34.4176C42.1412 34.277 42.5504 34.2067 43.0041 34.2067C43.3257 34.2085 43.6166 34.2386 43.8773 34.2983C44.1387 34.357 44.3611 34.4334 44.5455 34.5262L44.7968 33.715C44.7092 33.6675 44.582 33.6182 44.4162 33.565C44.2506 33.5133 44.0474 33.4679 43.8073 33.4314C43.5651 33.3934 43.2855 33.3748 42.9691 33.3727C42.37 33.3748 41.8256 33.4719 41.3339 33.6642C40.8428 33.8565 40.4202 34.1306 40.0642 34.4866C39.7082 34.8426 39.4341 35.2686 39.2418 35.7618C39.0477 36.2569 38.9509 36.8091 38.9485 37.4161C38.9524 38.0502 39.0477 38.6098 39.236 39.0969C39.4247 39.5825 39.6891 39.9899 40.0323 40.3197C40.3731 40.6505 40.7729 40.9 41.2329 41.0692C41.6921 41.2368 42.1944 41.3226 42.7412 41.3226C43.0549 41.3208 43.3427 41.3034 43.6056 41.2694C43.8679 41.2335 44.1006 41.1875 44.2984 41.1324C44.4962 41.0771 44.6544 41.0199 44.7743 40.9569L44.5799 40.1576ZM47.492 41.197H48.4973V34.3436H50.8509V33.498H45.151V34.3436H47.492V41.197ZM54.8136 33.3615C54.2979 33.363 53.822 33.4585 53.3896 33.649C52.9558 33.8391 52.5809 34.1115 52.2611 34.4653C51.941 34.8213 51.694 35.2461 51.5184 35.7411C51.3413 36.238 51.2522 36.7918 51.25 37.4052C51.2522 37.989 51.3355 38.52 51.5032 38.9998C51.6708 39.4781 51.907 39.8907 52.2137 40.2379C52.5204 40.5842 52.8858 40.8504 53.3078 41.0387C53.7304 41.2255 54.1969 41.3208 54.7111 41.3226C55.1051 41.3226 55.4818 41.2654 55.8378 41.1531C56.1938 41.0427 56.5218 40.875 56.8185 40.6544C57.1154 40.4335 57.3747 40.1615 57.5931 39.8341C57.8125 39.5086 57.9838 39.1316 58.1034 38.7029C58.2233 38.2745 58.2844 37.7952 58.2859 37.2676C58.2844 36.6908 58.2026 36.1656 58.0404 35.6897C57.8791 35.212 57.6464 34.8003 57.3421 34.4541C57.0394 34.106 56.6736 33.8373 56.2476 33.649C55.8229 33.46 55.3433 33.363 54.8136 33.3615ZM54.7795 34.172C55.1109 34.1741 55.4079 34.2332 55.6707 34.3515C55.9355 34.4674 56.1637 34.629 56.3599 34.8329C56.5562 35.0383 56.7199 35.2747 56.8492 35.5409C56.9788 35.8075 57.0759 36.0931 57.1401 36.3938C57.203 36.6965 57.2356 37.0032 57.2356 37.3136C57.2356 37.7532 57.1805 38.1664 57.0719 38.551C56.963 38.9356 56.8032 39.274 56.5942 39.5673C56.3827 39.8606 56.1256 40.0909 55.8189 40.2586C55.5128 40.4238 55.1623 40.5081 54.7683 40.5121C54.4522 40.5096 54.1649 40.4549 53.906 40.3459C53.6471 40.2355 53.4182 40.083 53.2186 39.8874C53.0187 39.6911 52.8511 39.4608 52.716 39.2C52.5791 38.9372 52.4759 38.6517 52.4059 38.3435C52.3375 38.0353 52.301 37.7149 52.301 37.382C52.301 37.0452 52.3335 36.7178 52.4002 36.4032C52.4647 36.0892 52.5639 35.7962 52.6968 35.526C52.8286 35.2573 52.9938 35.0212 53.1919 34.818C53.3896 34.6159 53.6224 34.458 53.8871 34.3451C54.1516 34.2313 54.4482 34.1741 54.7795 34.172ZM59.5766 41.1738C59.7425 41.197 59.9554 41.2176 60.2144 41.2368C60.4736 41.2541 60.7764 41.2636 61.1187 41.2654C61.7473 41.2654 62.2804 41.2082 62.7182 41.0905C63.1576 40.9721 63.5081 40.7917 63.7689 40.5461C63.9706 40.3633 64.1328 40.1442 64.2502 39.8874C64.3686 39.63 64.4291 39.3351 64.4316 39.0038C64.4291 38.7184 64.3798 38.4652 64.2867 38.2458C64.1915 38.0274 64.0676 37.8366 63.9119 37.6808C63.7555 37.5226 63.586 37.3954 63.3995 37.2962C63.2148 37.197 63.0283 37.1271 62.8439 37.0851V37.0507C63.1122 36.9536 63.3423 36.8204 63.5367 36.6527C63.7305 36.4851 63.8808 36.2912 63.9858 36.0703C64.0905 35.8494 64.1437 35.6133 64.1455 35.3599C64.1437 35.0571 64.085 34.7909 63.9706 34.5645C63.8547 34.3378 63.6964 34.1495 63.4947 34.001C63.3405 33.8714 63.1634 33.7649 62.9638 33.683C62.7635 33.6012 62.5332 33.5403 62.2764 33.5005C62.0175 33.46 61.7227 33.4408 61.3928 33.4408C61.1625 33.4408 60.9361 33.4488 60.7134 33.4621C60.4904 33.4774 60.2828 33.4965 60.089 33.5227C59.8928 33.548 59.7233 33.5784 59.5766 33.6125V41.1738ZM60.5704 34.2751C60.6486 34.256 60.7572 34.2411 60.8978 34.2274C61.0386 34.214 61.2236 34.2067 61.45 34.2067C61.7872 34.2046 62.082 34.2484 62.3315 34.3342C62.5831 34.4197 62.7788 34.5548 62.9178 34.7416C63.0569 34.926 63.1274 35.166 63.129 35.463C63.129 35.7125 63.0623 35.9352 62.9312 36.1312C62.8001 36.3253 62.6111 36.4796 62.364 36.5915C62.1185 36.7059 61.8212 36.7631 61.4731 36.7653H60.5704V34.2751ZM60.5704 37.5077H61.3928C61.667 37.5077 61.9223 37.5363 62.162 37.5935C62.4003 37.6507 62.6111 37.7399 62.794 37.8597C62.9765 37.9796 63.1195 38.1339 63.2227 38.3222C63.3252 38.5087 63.3785 38.7336 63.3803 38.9925C63.3785 39.27 63.3231 39.5067 63.2166 39.6984C63.1101 39.8907 62.9638 40.0456 62.7788 40.1615C62.5919 40.2774 62.3829 40.3611 62.1468 40.4125C61.911 40.4643 61.663 40.4908 61.4041 40.4889C61.2276 40.4889 61.0694 40.485 60.9321 40.4795C60.7931 40.4716 60.6732 40.4603 60.5704 40.443V37.5077ZM70.9417 40.1576C70.8066 40.2221 70.6523 40.2793 70.4777 40.3271C70.3021 40.3745 70.1159 40.411 69.9175 40.4372C69.7179 40.4643 69.5162 40.477 69.3087 40.477C68.6858 40.4737 68.1549 40.3477 67.717 40.0964C67.2792 39.8454 66.9439 39.4894 66.7121 39.0269C66.4799 38.5659 66.3633 38.0177 66.3615 37.382C66.3633 36.8751 66.4355 36.4263 66.5769 36.032C66.7193 35.6401 66.9232 35.3066 67.1858 35.0364C67.4502 34.7641 67.7663 34.5587 68.1342 34.4176C68.503 34.277 68.9122 34.2067 69.3659 34.2067C69.6878 34.2085 69.9787 34.2386 70.2394 34.2983C70.5005 34.357 70.7232 34.4334 70.9076 34.5262L71.1586 33.715C71.0713 33.6675 70.9441 33.6182 70.778 33.565C70.6128 33.5133 70.4092 33.4679 70.1691 33.4314C69.9269 33.3934 69.6473 33.3748 69.3312 33.3727C68.7318 33.3748 68.1874 33.4719 67.6957 33.6642C67.2046 33.8565 66.782 34.1306 66.426 34.4866C66.07 34.8426 65.7959 35.2686 65.6036 35.7618C65.4098 36.2569 65.3127 36.8091 65.3106 37.4161C65.3142 38.0502 65.4098 38.6098 65.5981 39.0969C65.7865 39.5825 66.0509 39.9899 66.3941 40.3197C66.7349 40.6505 67.1347 40.9 67.595 41.0692C68.0542 41.2368 68.5562 41.3226 69.103 41.3226C69.417 41.3208 69.7045 41.3034 69.9674 41.2694C70.2297 41.2335 70.4625 41.1875 70.6602 41.1324C70.8583 41.0771 71.0162 41.0199 71.1361 40.9569L70.9417 40.1576ZM72.3921 33.498V41.197H73.3859V37.6674H73.7059C74.0294 37.6674 74.3075 37.7094 74.5396 37.7913C74.77 37.875 74.968 37.9909 75.1299 38.1433C75.2915 38.2936 75.4287 38.4747 75.541 38.6843C75.6554 38.8933 75.7546 39.1255 75.8419 39.3805C75.9143 39.5846 75.9867 39.7921 76.0589 40.0033C76.1313 40.2166 76.2073 40.4238 76.2871 40.628C76.3674 40.8297 76.4547 41.0199 76.5499 41.197H77.6125C77.5035 40.9688 77.4028 40.7363 77.3112 40.5023C77.2199 40.2659 77.1326 40.0264 77.045 39.7787C76.9577 39.5314 76.864 39.2779 76.7669 39.015C76.6717 38.7543 76.5652 38.5127 76.4453 38.2903C76.3275 38.0672 76.186 37.8692 76.0208 37.6961C75.8571 37.5226 75.6609 37.3781 75.4305 37.2637C75.2002 37.1493 74.9261 37.0714 74.6081 37.0279L77.5209 33.498H76.333L73.6944 36.9135H73.3859V33.498H72.3921ZM78.5828 33.498V41.197H79.645L82.0551 37.3589C82.3219 36.9348 82.5772 36.5042 82.8242 36.0685C83.0722 35.6325 83.2928 35.2025 83.483 34.7775L83.5171 34.7894C83.4909 35.111 83.4718 35.4323 83.4584 35.7539C83.445 36.078 83.4377 36.4166 83.4319 36.7686C83.4279 37.1231 83.4258 37.5053 83.4258 37.9185V41.197H84.3626V33.498H83.3692L80.8791 37.4618C80.5991 37.9169 80.3402 38.3563 80.102 38.7789C79.8643 39.2 79.6514 39.6111 79.4624 40.0091L79.428 39.9978C79.4512 39.657 79.4685 39.3123 79.4813 38.9658C79.495 38.6192 79.5044 38.2632 79.5123 37.8962C79.5178 37.5284 79.5196 37.1438 79.5196 36.7425V33.498H78.5828ZM90.0741 36.7653H87.0928V34.3323H90.2569V33.498H86.0875V41.197H90.4282V40.3632H87.0928V37.5877H90.0741V36.7653ZM154.66 33.498V41.197H155.665V37.5877H159.389V41.197H160.393V33.498H159.389V36.7193H155.665V33.498H154.66ZM165.225 33.3615C164.709 33.363 164.233 33.4585 163.801 33.649C163.367 33.8391 162.992 34.1115 162.672 34.4653C162.352 34.8213 162.105 35.2461 161.93 35.7411C161.752 36.238 161.663 36.7918 161.661 37.4052C161.663 37.989 161.747 38.52 161.915 38.9998C162.082 39.4781 162.318 39.8907 162.625 40.2379C162.931 40.5842 163.297 40.8504 163.719 41.0387C164.142 41.2255 164.608 41.3208 165.122 41.3226C165.516 41.3226 165.893 41.2654 166.249 41.1531C166.605 41.0427 166.933 40.875 167.229 40.6544C167.527 40.4335 167.786 40.1615 168.004 39.8341C168.224 39.5086 168.395 39.1316 168.514 38.7029C168.634 38.2745 168.695 37.7952 168.697 37.2676C168.695 36.6908 168.614 36.1656 168.452 35.6897C168.29 35.212 168.058 34.8003 167.753 34.4541C167.45 34.106 167.085 33.8373 166.659 33.649C166.234 33.46 165.755 33.363 165.225 33.3615ZM165.191 34.172C165.522 34.1741 165.819 34.2332 166.082 34.3515C166.346 34.4674 166.575 34.629 166.771 34.8329C166.967 35.0383 167.131 35.2747 167.261 35.5409C167.39 35.8075 167.487 36.0931 167.551 36.3938C167.614 36.6965 167.647 37.0032 167.647 37.3136C167.647 37.7532 167.592 38.1664 167.483 38.551C167.374 38.9356 167.214 39.274 167.005 39.5673C166.794 39.8606 166.537 40.0909 166.23 40.2586C165.924 40.4238 165.574 40.5081 165.179 40.5121C164.863 40.5096 164.576 40.4549 164.317 40.3459C164.058 40.2355 163.83 40.083 163.63 39.8874C163.43 39.6911 163.262 39.4608 163.127 39.2C162.99 38.9372 162.887 38.6517 162.817 38.3435C162.749 38.0353 162.712 37.7149 162.712 37.382C162.712 37.0452 162.745 36.7178 162.812 36.4032C162.876 36.0892 162.975 35.7962 163.108 35.526C163.24 35.2573 163.405 35.0212 163.603 34.818C163.801 34.6159 164.033 34.458 164.298 34.3451C164.563 34.2313 164.859 34.1741 165.191 34.172ZM169.371 33.498L172.09 37.0394C171.791 37.0772 171.534 37.1493 171.315 37.2582C171.098 37.3668 170.909 37.5053 170.751 37.6769C170.595 37.8485 170.458 38.0481 170.34 38.2745C170.224 38.5014 170.117 38.7528 170.022 39.0269C169.941 39.2667 169.861 39.5086 169.783 39.7523C169.706 39.9957 169.624 40.2379 169.539 40.4795C169.453 40.7211 169.354 40.9608 169.246 41.197H170.262C170.346 41.0238 170.422 40.8315 170.495 40.6219C170.565 40.4125 170.634 40.2029 170.698 39.9899C170.763 39.7769 170.826 39.5767 170.89 39.3924C170.98 39.1276 171.077 38.8918 171.18 38.6782C171.284 38.4667 171.408 38.2863 171.553 38.136C171.698 37.9854 171.876 37.8692 172.09 37.7891C172.301 37.7094 172.56 37.6674 172.866 37.6674H173.221V41.197H174.18V37.6674H174.523C174.829 37.6674 175.088 37.7094 175.301 37.7891C175.513 37.8692 175.691 37.9854 175.836 38.136C175.981 38.2863 176.104 38.4667 176.209 38.6782C176.312 38.8918 176.41 39.1276 176.499 39.3924C176.56 39.5767 176.621 39.7769 176.685 39.9899C176.748 40.2029 176.816 40.4125 176.887 40.6219C176.959 40.8315 177.04 41.0238 177.127 41.197H178.143C178.039 40.9608 177.944 40.7211 177.862 40.4795C177.78 40.2379 177.7 39.9939 177.626 39.7483C177.551 39.5028 177.472 39.2591 177.389 39.015C177.295 38.7394 177.188 38.4881 177.07 38.2592C176.951 38.0314 176.813 37.8312 176.653 37.658C176.493 37.487 176.302 37.348 176.082 37.2409C175.861 37.1365 175.6 37.0674 175.3 37.0394L178.029 33.498H176.876L174.488 36.9135H174.18V33.498H173.221V36.9135H172.912L170.525 33.498H169.371ZM179.137 33.498V41.197H180.199L182.609 37.3589C182.876 36.9348 183.131 36.5042 183.378 36.0685C183.626 35.6325 183.847 35.2025 184.037 34.7775L184.071 34.7894C184.045 35.111 184.026 35.4323 184.012 35.7539C183.999 36.078 183.992 36.4166 183.986 36.7686C183.982 37.1231 183.98 37.5053 183.98 37.9185V41.197H184.917V33.498H183.923L181.433 37.4618C181.153 37.9169 180.894 38.3563 180.656 38.7789C180.418 39.2 180.205 39.6111 180.016 40.0091L179.982 39.9978C180.005 39.657 180.022 39.3123 180.036 38.9658C180.049 38.6192 180.058 38.2632 180.066 37.8962C180.072 37.5284 180.074 37.1438 180.074 36.7425V33.498H179.137Z" fill="#1F1C21"/>
</svg>
